<svg width="500" height="500" viewBox="0 0 500 500" fill="none" xmlns="http://www.w3.org/2000/svg">
<path d="M278.727 447.514C278.385 447.514 278.043 447.423 277.736 447.245L111.629 349.532C111.158 349.256 110.827 348.796 110.711 348.262C110.596 347.728 110.708 347.173 111.022 346.726L244.808 156.607C245.429 155.724 246.647 155.511 247.53 156.133C248.412 156.754 248.625 157.972 248.004 158.854L115.442 347.241L276.948 442.247L282.193 345.186C282.252 344.108 283.16 343.291 284.248 343.34C285.327 343.399 286.15 344.321 286.094 345.395L280.675 445.663C280.637 446.344 280.249 446.958 279.646 447.279C279.36 447.436 279.042 447.513 278.724 447.513L278.727 447.514ZM285.73 317.98C285.695 317.98 285.66 317.98 285.622 317.977C284.544 317.917 283.72 316.996 283.776 315.921L295.948 90.7388L264.873 134.896C264.252 135.779 263.034 135.992 262.151 135.371C261.268 134.75 261.055 133.532 261.677 132.649L296.67 82.926C297.173 82.2142 298.084 81.9176 298.907 82.2037C299.731 82.4898 300.265 83.2854 300.219 84.1544L287.678 316.135C287.622 317.175 286.76 317.981 285.731 317.981L285.73 317.98Z" fill="#333333"/>
<path d="M435.06 349.801H325.511C324.433 349.801 323.557 348.925 323.557 347.847C323.557 346.768 324.433 345.893 325.511 345.893H431.978L355.891 184.208L138.186 266.786C137.174 267.17 136.047 266.66 135.667 265.652C135.283 264.644 135.792 263.513 136.801 263.133L356.203 179.913C357.156 179.554 358.227 179.983 358.663 180.908L436.83 347.014C437.116 347.618 437.071 348.33 436.711 348.895C436.356 349.46 435.734 349.802 435.064 349.802L435.06 349.801ZM296.201 349.801H112.621C111.968 349.801 111.357 349.473 110.994 348.932L71.9111 290.307C71.5796 289.811 71.4959 289.194 71.6773 288.625C71.8588 288.06 72.288 287.606 72.8463 287.393L109.396 273.529C110.408 273.145 111.535 273.654 111.916 274.663C112.299 275.671 111.79 276.802 110.782 277.182L76.524 290.174L113.667 345.892H296.202C297.28 345.892 298.156 346.768 298.156 347.846C298.152 348.924 297.277 349.8 296.198 349.8L296.201 349.801Z" fill="#333333"/>
<path d="M73.5371 291.18C73.0765 291.18 72.6194 291.016 72.2564 290.702C71.712 290.234 71.4713 289.502 71.6283 288.8L110.712 112.921C110.827 112.397 111.155 111.944 111.615 111.668C112.076 111.392 112.631 111.319 113.144 111.462L201.745 136.27C202.785 136.56 203.392 137.638 203.099 138.678C202.809 139.718 201.727 140.325 200.691 140.032L114.076 115.779L76.2244 286.102L178.457 247.326C179.466 246.943 180.597 247.452 180.977 248.46C181.361 249.469 180.851 250.6 179.843 250.98L74.233 291.048C74.0062 291.131 73.7724 291.173 73.5386 291.173L73.5371 291.18ZM206.563 240.725C205.775 240.725 205.031 240.243 204.735 239.465C204.351 238.456 204.86 237.326 205.869 236.945L350.642 182.029L228.926 147.947C227.886 147.657 227.279 146.579 227.572 145.539C227.862 144.499 228.94 143.892 229.98 144.185L357.423 179.869C358.236 180.096 358.811 180.819 358.85 181.663C358.888 182.508 358.379 183.279 357.59 183.579L207.26 240.602C207.026 240.682 206.789 240.724 206.562 240.724L206.563 240.725Z" fill="#333333"/>
<path d="M425.287 457.287C413.433 457.287 403.792 447.645 403.792 435.791C403.792 423.938 413.434 414.296 425.287 414.296C437.141 414.296 446.782 423.938 446.782 435.791C446.782 447.645 437.141 457.287 425.287 457.287ZM425.287 418.203C415.59 418.203 407.699 426.093 407.699 435.791C407.699 445.489 415.589 453.379 425.287 453.379C434.985 453.379 442.875 445.489 442.875 435.791C442.875 426.093 434.985 418.203 425.287 418.203Z" fill="#333333"/>
<path d="M190.787 85.9908C178.933 85.9908 169.292 76.349 169.292 64.4954C169.292 52.6418 178.934 43 190.787 43C202.641 43 212.283 52.6418 212.283 64.4954C212.283 76.349 202.641 85.9908 190.787 85.9908ZM190.787 46.9074C181.09 46.9074 173.199 54.7974 173.199 64.4954C173.199 74.1934 181.089 82.0833 190.787 82.0833C200.485 82.0833 208.375 74.1934 208.375 64.4954C208.375 54.7974 200.485 46.9074 190.787 46.9074Z" fill="#333333"/>
<path d="M376.431 320.491C375.915 320.491 375.416 320.274 375.042 319.915C374.679 319.552 374.477 319.046 374.477 318.537C374.477 318.017 374.683 317.511 375.042 317.148C375.775 316.425 377.084 316.425 377.806 317.148C378.176 317.518 378.382 318.017 378.382 318.537C378.382 319.046 378.176 319.552 377.806 319.915C377.447 320.274 376.948 320.491 376.431 320.491Z" fill="#333333"/>
<path d="M347.12 320.491C346.604 320.491 346.105 320.274 345.742 319.915C345.372 319.552 345.166 319.046 345.166 318.537C345.166 318.017 345.372 317.511 345.742 317.148C346.454 316.425 347.773 316.425 348.499 317.148C348.868 317.518 349.074 318.017 349.074 318.537C349.074 319.046 348.868 319.552 348.509 319.915C348.136 320.274 347.637 320.491 347.12 320.491H347.12Z" fill="#333333"/>
<path d="M317.81 320.491C317.293 320.491 316.794 320.274 316.421 319.915C316.058 319.552 315.856 319.046 315.856 318.537C315.856 318.017 316.062 317.521 316.421 317.148C317.154 316.425 318.462 316.425 319.185 317.148C319.555 317.518 319.761 318.017 319.761 318.537C319.761 319.046 319.555 319.552 319.195 319.915C318.825 320.274 318.326 320.491 317.81 320.491H317.81Z" fill="#333333"/>
<path d="M317.81 291.18C317.3 291.18 316.794 290.964 316.421 290.604C316.058 290.242 315.856 289.736 315.856 289.226C315.856 288.706 316.062 288.211 316.421 287.837C317.154 287.115 318.462 287.115 319.185 287.837C319.555 288.207 319.761 288.706 319.761 289.226C319.761 289.735 319.555 290.241 319.185 290.604C318.825 290.964 318.319 291.18 317.81 291.18Z" fill="#333333"/>
<path d="M317.81 261.87C317.293 261.87 316.794 261.654 316.431 261.294C316.062 260.931 315.856 260.425 315.856 259.916C315.856 259.396 316.062 258.901 316.421 258.527C317.154 257.805 318.462 257.805 319.185 258.527C319.555 258.897 319.761 259.396 319.761 259.916C319.761 260.425 319.555 260.931 319.195 261.294C318.825 261.654 318.326 261.87 317.81 261.87Z" fill="#333333"/>
<path d="M54 426.02H73.5417V445.562H54V426.02Z" fill="#333333"/>
<path d="M83.3101 426.02H102.852V445.562H83.3101V426.02Z" fill="#333333"/>
<path d="M112.621 426.02H132.162V445.562H112.621V426.02Z" fill="#333333"/>
<path d="M141.931 426.02H161.473V445.562H141.931V426.02Z" fill="#333333"/>
</svg>
